<?xml version="1.0" standalone="no"?>
<!DOCTYPE svg PUBLIC "-//W3C//DTD SVG 20010904//EN"
 "http://www.w3.org/TR/2001/REC-SVG-20010904/DTD/svg10.dtd">
<svg version="1.0" xmlns="http://www.w3.org/2000/svg"
 width="649.000000pt" height="232.000000pt" viewBox="0 0 649.000000 232.000000"
 preserveAspectRatio="xMidYMid meet">

<g transform="translate(0.000000,232.000000) scale(0.100000,-0.100000)"
fill="#000000" stroke="none">
<path d="M805 1930 c-102 -27 -169 -55 -246 -105 -169 -109 -288 -279 -340
-484 -18 -71 -21 -105 -17 -210 4 -109 9 -139 37 -221 72 -211 213 -370 414
-465 123 -59 220 -78 366 -73 109 4 139 9 220 37 211 72 361 203 462 404 54
106 79 217 79 347 0 202 -62 369 -196 527 -92 108 -272 214 -421 247 -99 22
-268 20 -358 -4z m252 -381 c12 -12 53 -76 92 -143 38 -66 108 -188 155 -271
90 -157 100 -190 70 -234 -34 -47 -62 -51 -384 -51 -322 0 -350 4 -384 51 -30
44 -20 78 67 230 46 79 114 198 152 264 73 128 98 162 130 176 29 12 75 2 102
-22z"/>
</g>
</svg>
